<mxfile host="app.diagrams.net" modified="2022-12-10T15:27:52.857Z" agent="5.0 (Windows)" etag="jApWjmmMfgUT6zzI8sWI" version="20.5.3" type="github">
  <diagram id="C5RBs43oDa-KdzZeNtuy" name="Page-1">
    <mxGraphModel dx="2899" dy="2581" grid="1" gridSize="10" guides="1" tooltips="1" connect="1" arrows="1" fold="1" page="1" pageScale="1" pageWidth="1169" pageHeight="1654" math="0" shadow="0">
      <root>
        <mxCell id="WIyWlLk6GJQsqaUBKTNV-0" />
        <mxCell id="WIyWlLk6GJQsqaUBKTNV-1" parent="WIyWlLk6GJQsqaUBKTNV-0" />
        <mxCell id="zkfFHV4jXpPFQw0GAbJ--0" value="Klient" style="swimlane;fontStyle=2;align=center;verticalAlign=top;childLayout=stackLayout;horizontal=1;startSize=26;horizontalStack=0;resizeParent=1;resizeLast=0;collapsible=1;marginBottom=0;rounded=0;shadow=0;strokeWidth=1;" parent="WIyWlLk6GJQsqaUBKTNV-1" vertex="1">
          <mxGeometry y="-450" width="150" height="320" as="geometry">
            <mxRectangle x="230" y="140" width="160" height="26" as="alternateBounds" />
          </mxGeometry>
        </mxCell>
        <mxCell id="zkfFHV4jXpPFQw0GAbJ--1" value="-ID_klient: 1" style="text;align=left;verticalAlign=top;spacingLeft=4;spacingRight=4;overflow=hidden;rotatable=0;points=[[0,0.5],[1,0.5]];portConstraint=eastwest;" parent="zkfFHV4jXpPFQw0GAbJ--0" vertex="1">
          <mxGeometry y="26" width="150" height="26" as="geometry" />
        </mxCell>
        <mxCell id="zkfFHV4jXpPFQw0GAbJ--2" value="-Ime_klient: Anastasija" style="text;align=left;verticalAlign=top;spacingLeft=4;spacingRight=4;overflow=hidden;rotatable=0;points=[[0,0.5],[1,0.5]];portConstraint=eastwest;rounded=0;shadow=0;html=0;" parent="zkfFHV4jXpPFQw0GAbJ--0" vertex="1">
          <mxGeometry y="52" width="150" height="26" as="geometry" />
        </mxCell>
        <mxCell id="zkfFHV4jXpPFQw0GAbJ--3" value="-Prezime_klient:Gjosheva&#xa; &#xa;-Email: xxxx@gmail.com&#xa;&#xa;-Username: anastasijagj&#xa;&#xa;- Password: 123&#xa;&#xa;-Tel_broj: 12345&#xa;&#xa;-Pol: zenski&#xa;&#xa;-Adresa: Jordan Mijalkov&#xa;&#xa;-Loyalty_card:true&#xa;&#xa;&#xa;" style="text;align=left;verticalAlign=top;spacingLeft=4;spacingRight=4;overflow=hidden;rotatable=0;points=[[0,0.5],[1,0.5]];portConstraint=eastwest;rounded=0;shadow=0;html=0;" parent="zkfFHV4jXpPFQw0GAbJ--0" vertex="1">
          <mxGeometry y="78" width="150" height="222" as="geometry" />
        </mxCell>
        <mxCell id="rF4SldOmLLkLFuO0pQVK-22" style="edgeStyle=orthogonalEdgeStyle;rounded=0;orthogonalLoop=1;jettySize=auto;html=1;exitX=0.5;exitY=1;exitDx=0;exitDy=0;strokeWidth=1;endArrow=diamondThin;endFill=0;endSize=8;" edge="1" parent="WIyWlLk6GJQsqaUBKTNV-1" source="rF4SldOmLLkLFuO0pQVK-3" target="rF4SldOmLLkLFuO0pQVK-14">
          <mxGeometry relative="1" as="geometry" />
        </mxCell>
        <mxCell id="rF4SldOmLLkLFuO0pQVK-110" style="edgeStyle=orthogonalEdgeStyle;rounded=0;orthogonalLoop=1;jettySize=auto;html=1;exitX=0.5;exitY=0;exitDx=0;exitDy=0;entryX=0.5;entryY=1;entryDx=0;entryDy=0;strokeWidth=1;endArrow=diamondThin;endFill=1;endSize=8;" edge="1" parent="WIyWlLk6GJQsqaUBKTNV-1" source="rF4SldOmLLkLFuO0pQVK-3">
          <mxGeometry relative="1" as="geometry">
            <mxPoint x="390" y="-630" as="targetPoint" />
          </mxGeometry>
        </mxCell>
        <mxCell id="rF4SldOmLLkLFuO0pQVK-3" value="Proizvod" style="swimlane;fontStyle=2;align=center;verticalAlign=top;childLayout=stackLayout;horizontal=1;startSize=26;horizontalStack=0;resizeParent=1;resizeLast=0;collapsible=1;marginBottom=0;rounded=0;shadow=0;strokeWidth=1;" vertex="1" parent="WIyWlLk6GJQsqaUBKTNV-1">
          <mxGeometry x="290" y="-460" width="160" height="230" as="geometry">
            <mxRectangle x="230" y="140" width="160" height="26" as="alternateBounds" />
          </mxGeometry>
        </mxCell>
        <mxCell id="rF4SldOmLLkLFuO0pQVK-4" value="-ID_proizvod: 1" style="text;align=left;verticalAlign=top;spacingLeft=4;spacingRight=4;overflow=hidden;rotatable=0;points=[[0,0.5],[1,0.5]];portConstraint=eastwest;" vertex="1" parent="rF4SldOmLLkLFuO0pQVK-3">
          <mxGeometry y="26" width="160" height="26" as="geometry" />
        </mxCell>
        <mxCell id="rF4SldOmLLkLFuO0pQVK-5" value="-Ime_proizvod: kaput" style="text;align=left;verticalAlign=top;spacingLeft=4;spacingRight=4;overflow=hidden;rotatable=0;points=[[0,0.5],[1,0.5]];portConstraint=eastwest;rounded=0;shadow=0;html=0;" vertex="1" parent="rF4SldOmLLkLFuO0pQVK-3">
          <mxGeometry y="52" width="160" height="26" as="geometry" />
        </mxCell>
        <mxCell id="rF4SldOmLLkLFuO0pQVK-6" value="-Kolekcija:zenska&#xa; &#xa;-Cena: 3500&#xa;&#xa;-Boja: crvena&#xa;&#xa;-Kolicina: 1&#xa;&#xa;-Golemina: M&#xa;&#xa;&#xa;&#xa;&#xa;" style="text;align=left;verticalAlign=top;spacingLeft=4;spacingRight=4;overflow=hidden;rotatable=0;points=[[0,0.5],[1,0.5]];portConstraint=eastwest;rounded=0;shadow=0;html=0;" vertex="1" parent="rF4SldOmLLkLFuO0pQVK-3">
          <mxGeometry y="78" width="160" height="152" as="geometry" />
        </mxCell>
        <mxCell id="rF4SldOmLLkLFuO0pQVK-10" style="edgeStyle=orthogonalEdgeStyle;rounded=0;orthogonalLoop=1;jettySize=auto;html=1;endArrow=classic;endFill=1;strokeWidth=1;endSize=8;" edge="1" parent="WIyWlLk6GJQsqaUBKTNV-1" source="zkfFHV4jXpPFQw0GAbJ--3" target="rF4SldOmLLkLFuO0pQVK-6">
          <mxGeometry relative="1" as="geometry" />
        </mxCell>
        <mxCell id="rF4SldOmLLkLFuO0pQVK-13" value="bira" style="text;html=1;strokeColor=none;fillColor=none;align=center;verticalAlign=middle;whiteSpace=wrap;rounded=0;" vertex="1" parent="WIyWlLk6GJQsqaUBKTNV-1">
          <mxGeometry x="180" y="-300" width="60" height="30" as="geometry" />
        </mxCell>
        <mxCell id="rF4SldOmLLkLFuO0pQVK-14" value="Koshnichka" style="swimlane;fontStyle=2;align=center;verticalAlign=top;childLayout=stackLayout;horizontal=1;startSize=26;horizontalStack=0;resizeParent=1;resizeLast=0;collapsible=1;marginBottom=0;rounded=0;shadow=0;strokeWidth=1;" vertex="1" parent="WIyWlLk6GJQsqaUBKTNV-1">
          <mxGeometry x="270" y="-90" width="140" height="100" as="geometry">
            <mxRectangle x="230" y="140" width="160" height="26" as="alternateBounds" />
          </mxGeometry>
        </mxCell>
        <mxCell id="rF4SldOmLLkLFuO0pQVK-15" value="-ID_proizvod 1" style="text;align=left;verticalAlign=top;spacingLeft=4;spacingRight=4;overflow=hidden;rotatable=0;points=[[0,0.5],[1,0.5]];portConstraint=eastwest;" vertex="1" parent="rF4SldOmLLkLFuO0pQVK-14">
          <mxGeometry y="26" width="140" height="26" as="geometry" />
        </mxCell>
        <mxCell id="rF4SldOmLLkLFuO0pQVK-16" value="-ID_klient:i1" style="text;align=left;verticalAlign=top;spacingLeft=4;spacingRight=4;overflow=hidden;rotatable=0;points=[[0,0.5],[1,0.5]];portConstraint=eastwest;rounded=0;shadow=0;html=0;" vertex="1" parent="rF4SldOmLLkLFuO0pQVK-14">
          <mxGeometry y="52" width="140" height="26" as="geometry" />
        </mxCell>
        <mxCell id="rF4SldOmLLkLFuO0pQVK-25" value="stava" style="text;html=1;strokeColor=none;fillColor=none;align=center;verticalAlign=middle;whiteSpace=wrap;rounded=0;" vertex="1" parent="WIyWlLk6GJQsqaUBKTNV-1">
          <mxGeometry x="380" y="-176" width="60" height="30" as="geometry" />
        </mxCell>
        <mxCell id="rF4SldOmLLkLFuO0pQVK-29" style="edgeStyle=orthogonalEdgeStyle;rounded=0;orthogonalLoop=1;jettySize=auto;html=1;exitX=1.008;exitY=0.707;exitDx=0;exitDy=0;entryX=0.325;entryY=0;entryDx=0;entryDy=0;entryPerimeter=0;strokeWidth=1;endArrow=diamondThin;endFill=1;endSize=8;exitPerimeter=0;" edge="1" parent="WIyWlLk6GJQsqaUBKTNV-1" source="zkfFHV4jXpPFQw0GAbJ--3" target="rF4SldOmLLkLFuO0pQVK-14">
          <mxGeometry relative="1" as="geometry">
            <mxPoint x="95" y="-50" as="sourcePoint" />
          </mxGeometry>
        </mxCell>
        <mxCell id="rF4SldOmLLkLFuO0pQVK-32" value="ima" style="text;html=1;strokeColor=none;fillColor=none;align=center;verticalAlign=middle;whiteSpace=wrap;rounded=0;" vertex="1" parent="WIyWlLk6GJQsqaUBKTNV-1">
          <mxGeometry x="220" y="-220" width="60" height="30" as="geometry" />
        </mxCell>
        <mxCell id="rF4SldOmLLkLFuO0pQVK-73" style="edgeStyle=orthogonalEdgeStyle;rounded=0;orthogonalLoop=1;jettySize=auto;html=1;strokeWidth=1;endArrow=block;endFill=1;endSize=8;exitX=0.5;exitY=1;exitDx=0;exitDy=0;" edge="1" parent="WIyWlLk6GJQsqaUBKTNV-1" source="rF4SldOmLLkLFuO0pQVK-43" target="rF4SldOmLLkLFuO0pQVK-33">
          <mxGeometry relative="1" as="geometry" />
        </mxCell>
        <mxCell id="rF4SldOmLLkLFuO0pQVK-33" value="Narachka" style="swimlane;fontStyle=2;align=center;verticalAlign=top;childLayout=stackLayout;horizontal=1;startSize=26;horizontalStack=0;resizeParent=1;resizeLast=0;collapsible=1;marginBottom=0;rounded=0;shadow=0;strokeWidth=1;" vertex="1" parent="WIyWlLk6GJQsqaUBKTNV-1">
          <mxGeometry x="570" y="-150" width="160" height="170" as="geometry">
            <mxRectangle x="230" y="140" width="160" height="26" as="alternateBounds" />
          </mxGeometry>
        </mxCell>
        <mxCell id="rF4SldOmLLkLFuO0pQVK-34" value="-ID_narachka: 1" style="text;align=left;verticalAlign=top;spacingLeft=4;spacingRight=4;overflow=hidden;rotatable=0;points=[[0,0.5],[1,0.5]];portConstraint=eastwest;" vertex="1" parent="rF4SldOmLLkLFuO0pQVK-33">
          <mxGeometry y="26" width="160" height="26" as="geometry" />
        </mxCell>
        <mxCell id="rF4SldOmLLkLFuO0pQVK-35" value="-ID_klient: 1" style="text;align=left;verticalAlign=top;spacingLeft=4;spacingRight=4;overflow=hidden;rotatable=0;points=[[0,0.5],[1,0.5]];portConstraint=eastwest;rounded=0;shadow=0;html=0;" vertex="1" parent="rF4SldOmLLkLFuO0pQVK-33">
          <mxGeometry y="52" width="160" height="26" as="geometry" />
        </mxCell>
        <mxCell id="rF4SldOmLLkLFuO0pQVK-36" value="-Suma:3500&#xa;&#xa;-Datum:23.08.2022&#xa;" style="text;align=left;verticalAlign=top;spacingLeft=4;spacingRight=4;overflow=hidden;rotatable=0;points=[[0,0.5],[1,0.5]];portConstraint=eastwest;rounded=0;shadow=0;html=0;" vertex="1" parent="rF4SldOmLLkLFuO0pQVK-33">
          <mxGeometry y="78" width="160" height="92" as="geometry" />
        </mxCell>
        <mxCell id="rF4SldOmLLkLFuO0pQVK-42" value="narachaj" style="text;html=1;strokeColor=none;fillColor=none;align=center;verticalAlign=middle;whiteSpace=wrap;rounded=0;" vertex="1" parent="WIyWlLk6GJQsqaUBKTNV-1">
          <mxGeometry x="460" y="-80" width="60" height="30" as="geometry" />
        </mxCell>
        <mxCell id="rF4SldOmLLkLFuO0pQVK-43" value="Plakanje" style="swimlane;fontStyle=2;align=center;verticalAlign=top;childLayout=stackLayout;horizontal=1;startSize=26;horizontalStack=0;resizeParent=1;resizeLast=0;collapsible=1;marginBottom=0;rounded=0;shadow=0;strokeWidth=1;" vertex="1" parent="WIyWlLk6GJQsqaUBKTNV-1">
          <mxGeometry x="560" y="-460" width="160" height="190" as="geometry">
            <mxRectangle x="230" y="140" width="160" height="26" as="alternateBounds" />
          </mxGeometry>
        </mxCell>
        <mxCell id="rF4SldOmLLkLFuO0pQVK-44" value="-ID_narachka: 1" style="text;align=left;verticalAlign=top;spacingLeft=4;spacingRight=4;overflow=hidden;rotatable=0;points=[[0,0.5],[1,0.5]];portConstraint=eastwest;" vertex="1" parent="rF4SldOmLLkLFuO0pQVK-43">
          <mxGeometry y="26" width="160" height="26" as="geometry" />
        </mxCell>
        <mxCell id="rF4SldOmLLkLFuO0pQVK-45" value="-ID_klient: 1" style="text;align=left;verticalAlign=top;spacingLeft=4;spacingRight=4;overflow=hidden;rotatable=0;points=[[0,0.5],[1,0.5]];portConstraint=eastwest;rounded=0;shadow=0;html=0;" vertex="1" parent="rF4SldOmLLkLFuO0pQVK-43">
          <mxGeometry y="52" width="160" height="26" as="geometry" />
        </mxCell>
        <mxCell id="rF4SldOmLLkLFuO0pQVK-46" value="- ID_banka:1&#xa;&#xa;-Suma:3500&#xa;-Datum: 23.08.2022&#xa;&#xa;" style="text;align=left;verticalAlign=top;spacingLeft=4;spacingRight=4;overflow=hidden;rotatable=0;points=[[0,0.5],[1,0.5]];portConstraint=eastwest;rounded=0;shadow=0;html=0;" vertex="1" parent="rF4SldOmLLkLFuO0pQVK-43">
          <mxGeometry y="78" width="160" height="92" as="geometry" />
        </mxCell>
        <mxCell id="rF4SldOmLLkLFuO0pQVK-49" value="BankaKlient" style="swimlane;fontStyle=2;align=center;verticalAlign=top;childLayout=stackLayout;horizontal=1;startSize=26;horizontalStack=0;resizeParent=1;resizeLast=0;collapsible=1;marginBottom=0;rounded=0;shadow=0;strokeWidth=1;" vertex="1" parent="WIyWlLk6GJQsqaUBKTNV-1">
          <mxGeometry x="840" y="-460" width="160" height="260" as="geometry">
            <mxRectangle x="230" y="140" width="160" height="26" as="alternateBounds" />
          </mxGeometry>
        </mxCell>
        <mxCell id="rF4SldOmLLkLFuO0pQVK-50" value="-ID_banka: int" style="text;align=left;verticalAlign=top;spacingLeft=4;spacingRight=4;overflow=hidden;rotatable=0;points=[[0,0.5],[1,0.5]];portConstraint=eastwest;" vertex="1" parent="rF4SldOmLLkLFuO0pQVK-49">
          <mxGeometry y="26" width="160" height="26" as="geometry" />
        </mxCell>
        <mxCell id="rF4SldOmLLkLFuO0pQVK-51" value="-ID_klient: int" style="text;align=left;verticalAlign=top;spacingLeft=4;spacingRight=4;overflow=hidden;rotatable=0;points=[[0,0.5],[1,0.5]];portConstraint=eastwest;rounded=0;shadow=0;html=0;" vertex="1" parent="rF4SldOmLLkLFuO0pQVK-49">
          <mxGeometry y="52" width="160" height="26" as="geometry" />
        </mxCell>
        <mxCell id="rF4SldOmLLkLFuO0pQVK-52" value="- Smetka: int" style="text;align=left;verticalAlign=top;spacingLeft=4;spacingRight=4;overflow=hidden;rotatable=0;points=[[0,0.5],[1,0.5]];portConstraint=eastwest;rounded=0;shadow=0;html=0;" vertex="1" parent="rF4SldOmLLkLFuO0pQVK-49">
          <mxGeometry y="78" width="160" height="52" as="geometry" />
        </mxCell>
        <mxCell id="rF4SldOmLLkLFuO0pQVK-53" value="" style="line;html=1;strokeWidth=1;align=left;verticalAlign=middle;spacingTop=-1;spacingLeft=3;spacingRight=3;rotatable=0;labelPosition=right;points=[];portConstraint=eastwest;" vertex="1" parent="rF4SldOmLLkLFuO0pQVK-49">
          <mxGeometry y="130" width="160" height="8" as="geometry" />
        </mxCell>
        <mxCell id="rF4SldOmLLkLFuO0pQVK-54" value="&lt;div&gt;+ getters()&lt;/div&gt;&lt;div&gt;+setters()&lt;/div&gt;&lt;div&gt;+izvestiSostojva()&lt;/div&gt;&lt;div&gt;+kontaktirajBanka()&lt;/div&gt;&lt;div&gt;+kontaktirajKlient()&lt;br&gt;&lt;/div&gt;" style="text;html=1;strokeColor=none;fillColor=none;align=center;verticalAlign=middle;whiteSpace=wrap;rounded=0;" vertex="1" parent="rF4SldOmLLkLFuO0pQVK-49">
          <mxGeometry y="138" width="160" height="102" as="geometry" />
        </mxCell>
        <mxCell id="rF4SldOmLLkLFuO0pQVK-55" value="Banka" style="swimlane;fontStyle=2;align=center;verticalAlign=top;childLayout=stackLayout;horizontal=1;startSize=26;horizontalStack=0;resizeParent=1;resizeLast=0;collapsible=1;marginBottom=0;rounded=0;shadow=0;strokeWidth=1;" vertex="1" parent="WIyWlLk6GJQsqaUBKTNV-1">
          <mxGeometry x="1120" y="-460" width="160" height="200" as="geometry">
            <mxRectangle x="230" y="140" width="160" height="26" as="alternateBounds" />
          </mxGeometry>
        </mxCell>
        <mxCell id="rF4SldOmLLkLFuO0pQVK-56" value="-ID_banka: int" style="text;align=left;verticalAlign=top;spacingLeft=4;spacingRight=4;overflow=hidden;rotatable=0;points=[[0,0.5],[1,0.5]];portConstraint=eastwest;" vertex="1" parent="rF4SldOmLLkLFuO0pQVK-55">
          <mxGeometry y="26" width="160" height="26" as="geometry" />
        </mxCell>
        <mxCell id="rF4SldOmLLkLFuO0pQVK-57" value="-Ime_Banka: string" style="text;align=left;verticalAlign=top;spacingLeft=4;spacingRight=4;overflow=hidden;rotatable=0;points=[[0,0.5],[1,0.5]];portConstraint=eastwest;rounded=0;shadow=0;html=0;" vertex="1" parent="rF4SldOmLLkLFuO0pQVK-55">
          <mxGeometry y="52" width="160" height="26" as="geometry" />
        </mxCell>
        <mxCell id="rF4SldOmLLkLFuO0pQVK-58" value="- Adresa: string&#xa;&#xa;- Tel_broj: int&#xa;" style="text;align=left;verticalAlign=top;spacingLeft=4;spacingRight=4;overflow=hidden;rotatable=0;points=[[0,0.5],[1,0.5]];portConstraint=eastwest;rounded=0;shadow=0;html=0;" vertex="1" parent="rF4SldOmLLkLFuO0pQVK-55">
          <mxGeometry y="78" width="160" height="52" as="geometry" />
        </mxCell>
        <mxCell id="rF4SldOmLLkLFuO0pQVK-59" value="" style="line;html=1;strokeWidth=1;align=left;verticalAlign=middle;spacingTop=-1;spacingLeft=3;spacingRight=3;rotatable=0;labelPosition=right;points=[];portConstraint=eastwest;" vertex="1" parent="rF4SldOmLLkLFuO0pQVK-55">
          <mxGeometry y="130" width="160" height="8" as="geometry" />
        </mxCell>
        <mxCell id="rF4SldOmLLkLFuO0pQVK-60" value="&lt;div&gt;+ getters()&lt;/div&gt;&lt;div&gt;+setters()&lt;/div&gt;&lt;div&gt;&lt;br&gt;&lt;/div&gt;" style="text;html=1;strokeColor=none;fillColor=none;align=center;verticalAlign=middle;whiteSpace=wrap;rounded=0;" vertex="1" parent="rF4SldOmLLkLFuO0pQVK-55">
          <mxGeometry y="138" width="160" height="62" as="geometry" />
        </mxCell>
        <mxCell id="rF4SldOmLLkLFuO0pQVK-61" value="Dostavuvac" style="swimlane;fontStyle=2;align=center;verticalAlign=top;childLayout=stackLayout;horizontal=1;startSize=26;horizontalStack=0;resizeParent=1;resizeLast=0;collapsible=1;marginBottom=0;rounded=0;shadow=0;strokeWidth=1;" vertex="1" parent="WIyWlLk6GJQsqaUBKTNV-1">
          <mxGeometry x="540" y="-700" width="160" height="170" as="geometry">
            <mxRectangle x="230" y="140" width="160" height="26" as="alternateBounds" />
          </mxGeometry>
        </mxCell>
        <mxCell id="rF4SldOmLLkLFuO0pQVK-62" value="-ID_dostavuvac: 1" style="text;align=left;verticalAlign=top;spacingLeft=4;spacingRight=4;overflow=hidden;rotatable=0;points=[[0,0.5],[1,0.5]];portConstraint=eastwest;" vertex="1" parent="rF4SldOmLLkLFuO0pQVK-61">
          <mxGeometry y="26" width="160" height="26" as="geometry" />
        </mxCell>
        <mxCell id="rF4SldOmLLkLFuO0pQVK-63" value="-Ime_Dostavuvac: Zara" style="text;align=left;verticalAlign=top;spacingLeft=4;spacingRight=4;overflow=hidden;rotatable=0;points=[[0,0.5],[1,0.5]];portConstraint=eastwest;rounded=0;shadow=0;html=0;" vertex="1" parent="rF4SldOmLLkLFuO0pQVK-61">
          <mxGeometry y="52" width="160" height="26" as="geometry" />
        </mxCell>
        <mxCell id="rF4SldOmLLkLFuO0pQVK-64" value="- Email: string&#xa;&#xa;- Tel_broj: int&#xa;" style="text;align=left;verticalAlign=top;spacingLeft=4;spacingRight=4;overflow=hidden;rotatable=0;points=[[0,0.5],[1,0.5]];portConstraint=eastwest;rounded=0;shadow=0;html=0;" vertex="1" parent="rF4SldOmLLkLFuO0pQVK-61">
          <mxGeometry y="78" width="160" height="82" as="geometry" />
        </mxCell>
        <mxCell id="rF4SldOmLLkLFuO0pQVK-67" value="Dostava" style="swimlane;fontStyle=2;align=center;verticalAlign=top;childLayout=stackLayout;horizontal=1;startSize=26;horizontalStack=0;resizeParent=1;resizeLast=0;collapsible=1;marginBottom=0;rounded=0;shadow=0;strokeWidth=1;" vertex="1" parent="WIyWlLk6GJQsqaUBKTNV-1">
          <mxGeometry x="830" y="-805" width="160" height="280" as="geometry">
            <mxRectangle x="230" y="140" width="160" height="26" as="alternateBounds" />
          </mxGeometry>
        </mxCell>
        <mxCell id="rF4SldOmLLkLFuO0pQVK-68" value="-ID_dostava: int" style="text;align=left;verticalAlign=top;spacingLeft=4;spacingRight=4;overflow=hidden;rotatable=0;points=[[0,0.5],[1,0.5]];portConstraint=eastwest;" vertex="1" parent="rF4SldOmLLkLFuO0pQVK-67">
          <mxGeometry y="26" width="160" height="26" as="geometry" />
        </mxCell>
        <mxCell id="rF4SldOmLLkLFuO0pQVK-69" value="-ID_Dostavuvac: int" style="text;align=left;verticalAlign=top;spacingLeft=4;spacingRight=4;overflow=hidden;rotatable=0;points=[[0,0.5],[1,0.5]];portConstraint=eastwest;rounded=0;shadow=0;html=0;" vertex="1" parent="rF4SldOmLLkLFuO0pQVK-67">
          <mxGeometry y="52" width="160" height="26" as="geometry" />
        </mxCell>
        <mxCell id="rF4SldOmLLkLFuO0pQVK-70" value="- ID_narachka: int&#xa;&#xa;-Datum: Date&#xa;&#xa;-Adresa: String&#xa;" style="text;align=left;verticalAlign=top;spacingLeft=4;spacingRight=4;overflow=hidden;rotatable=0;points=[[0,0.5],[1,0.5]];portConstraint=eastwest;rounded=0;shadow=0;html=0;" vertex="1" parent="rF4SldOmLLkLFuO0pQVK-67">
          <mxGeometry y="78" width="160" height="92" as="geometry" />
        </mxCell>
        <mxCell id="rF4SldOmLLkLFuO0pQVK-71" value="" style="line;html=1;strokeWidth=1;align=left;verticalAlign=middle;spacingTop=-1;spacingLeft=3;spacingRight=3;rotatable=0;labelPosition=right;points=[];portConstraint=eastwest;" vertex="1" parent="rF4SldOmLLkLFuO0pQVK-67">
          <mxGeometry y="170" width="160" height="8" as="geometry" />
        </mxCell>
        <mxCell id="rF4SldOmLLkLFuO0pQVK-72" value="&lt;div&gt;+ getters()&lt;/div&gt;&lt;div&gt;+setters()&lt;/div&gt;&lt;div&gt;+podigniDostava()&lt;/div&gt;&lt;div&gt;+izvestiDostavuvac()&lt;br&gt;&lt;/div&gt;" style="text;html=1;strokeColor=none;fillColor=none;align=center;verticalAlign=middle;whiteSpace=wrap;rounded=0;" vertex="1" parent="rF4SldOmLLkLFuO0pQVK-67">
          <mxGeometry y="178" width="160" height="102" as="geometry" />
        </mxCell>
        <mxCell id="rF4SldOmLLkLFuO0pQVK-76" value="plati" style="text;html=1;strokeColor=none;fillColor=none;align=center;verticalAlign=middle;whiteSpace=wrap;rounded=0;" vertex="1" parent="WIyWlLk6GJQsqaUBKTNV-1">
          <mxGeometry x="640" y="-220" width="60" height="30" as="geometry" />
        </mxCell>
        <mxCell id="rF4SldOmLLkLFuO0pQVK-78" style="edgeStyle=orthogonalEdgeStyle;rounded=0;orthogonalLoop=1;jettySize=auto;html=1;exitX=1;exitY=0.5;exitDx=0;exitDy=0;entryX=0.008;entryY=0.971;entryDx=0;entryDy=0;entryPerimeter=0;strokeWidth=1;endArrow=classic;endFill=0;endSize=8;" edge="1" parent="WIyWlLk6GJQsqaUBKTNV-1" source="rF4SldOmLLkLFuO0pQVK-46" target="rF4SldOmLLkLFuO0pQVK-52">
          <mxGeometry relative="1" as="geometry" />
        </mxCell>
        <mxCell id="rF4SldOmLLkLFuO0pQVK-79" style="edgeStyle=orthogonalEdgeStyle;rounded=0;orthogonalLoop=1;jettySize=auto;html=1;exitX=1;exitY=0.5;exitDx=0;exitDy=0;strokeWidth=1;endArrow=diamondThin;endFill=1;endSize=8;" edge="1" parent="WIyWlLk6GJQsqaUBKTNV-1" source="rF4SldOmLLkLFuO0pQVK-52" target="rF4SldOmLLkLFuO0pQVK-58">
          <mxGeometry relative="1" as="geometry" />
        </mxCell>
        <mxCell id="rF4SldOmLLkLFuO0pQVK-80" style="edgeStyle=orthogonalEdgeStyle;rounded=0;orthogonalLoop=1;jettySize=auto;html=1;exitX=0.5;exitY=1;exitDx=0;exitDy=0;entryX=0.446;entryY=0.009;entryDx=0;entryDy=0;entryPerimeter=0;strokeWidth=1;endArrow=diamondThin;endFill=1;endSize=8;" edge="1" parent="WIyWlLk6GJQsqaUBKTNV-1" target="rF4SldOmLLkLFuO0pQVK-43">
          <mxGeometry relative="1" as="geometry">
            <mxPoint x="640" y="-530" as="sourcePoint" />
          </mxGeometry>
        </mxCell>
        <mxCell id="rF4SldOmLLkLFuO0pQVK-81" style="edgeStyle=orthogonalEdgeStyle;rounded=0;orthogonalLoop=1;jettySize=auto;html=1;exitX=1;exitY=0.5;exitDx=0;exitDy=0;entryX=0;entryY=0.5;entryDx=0;entryDy=0;strokeWidth=1;endArrow=diamondThin;endFill=1;endSize=8;" edge="1" parent="WIyWlLk6GJQsqaUBKTNV-1" source="rF4SldOmLLkLFuO0pQVK-64" target="rF4SldOmLLkLFuO0pQVK-70">
          <mxGeometry relative="1" as="geometry" />
        </mxCell>
        <mxCell id="rF4SldOmLLkLFuO0pQVK-84" value="baranjeOdobruvanje" style="text;html=1;strokeColor=none;fillColor=none;align=center;verticalAlign=middle;whiteSpace=wrap;rounded=0;" vertex="1" parent="WIyWlLk6GJQsqaUBKTNV-1">
          <mxGeometry x="750" y="-320" width="60" height="30" as="geometry" />
        </mxCell>
        <mxCell id="rF4SldOmLLkLFuO0pQVK-85" value="odobruvanje" style="text;html=1;strokeColor=none;fillColor=none;align=center;verticalAlign=middle;whiteSpace=wrap;rounded=0;" vertex="1" parent="WIyWlLk6GJQsqaUBKTNV-1">
          <mxGeometry x="1030" y="-350" width="60" height="30" as="geometry" />
        </mxCell>
        <mxCell id="rF4SldOmLLkLFuO0pQVK-87" value="1...*" style="text;html=1;strokeColor=none;fillColor=none;align=center;verticalAlign=middle;whiteSpace=wrap;rounded=0;" vertex="1" parent="WIyWlLk6GJQsqaUBKTNV-1">
          <mxGeometry x="1000" y="-390" width="60" height="30" as="geometry" />
        </mxCell>
        <mxCell id="rF4SldOmLLkLFuO0pQVK-88" value="1" style="text;html=1;strokeColor=none;fillColor=none;align=center;verticalAlign=middle;whiteSpace=wrap;rounded=0;" vertex="1" parent="WIyWlLk6GJQsqaUBKTNV-1">
          <mxGeometry x="1070" y="-390" width="60" height="30" as="geometry" />
        </mxCell>
        <mxCell id="rF4SldOmLLkLFuO0pQVK-91" value="najdiDostavuvac" style="text;html=1;strokeColor=none;fillColor=none;align=center;verticalAlign=middle;whiteSpace=wrap;rounded=0;" vertex="1" parent="WIyWlLk6GJQsqaUBKTNV-1">
          <mxGeometry x="555" y="-510" width="60" height="30" as="geometry" />
        </mxCell>
        <mxCell id="rF4SldOmLLkLFuO0pQVK-92" value="Text" style="text;html=1;strokeColor=none;fillColor=none;align=center;verticalAlign=middle;whiteSpace=wrap;rounded=0;" vertex="1" parent="WIyWlLk6GJQsqaUBKTNV-1">
          <mxGeometry x="810" y="-570" width="60" height="30" as="geometry" />
        </mxCell>
        <mxCell id="rF4SldOmLLkLFuO0pQVK-95" value="dostavi" style="text;html=1;strokeColor=none;fillColor=none;align=center;verticalAlign=middle;whiteSpace=wrap;rounded=0;" vertex="1" parent="WIyWlLk6GJQsqaUBKTNV-1">
          <mxGeometry x="760" y="-650" width="60" height="30" as="geometry" />
        </mxCell>
        <mxCell id="rF4SldOmLLkLFuO0pQVK-97" value="Dobavucac" style="swimlane;fontStyle=2;align=center;verticalAlign=top;childLayout=stackLayout;horizontal=1;startSize=26;horizontalStack=0;resizeParent=1;resizeLast=0;collapsible=1;marginBottom=0;rounded=0;shadow=0;strokeWidth=1;" vertex="1" parent="WIyWlLk6GJQsqaUBKTNV-1">
          <mxGeometry x="310" y="-800" width="160" height="170" as="geometry">
            <mxRectangle x="230" y="140" width="160" height="26" as="alternateBounds" />
          </mxGeometry>
        </mxCell>
        <mxCell id="rF4SldOmLLkLFuO0pQVK-98" value="-ID_dobavucac:1" style="text;align=left;verticalAlign=top;spacingLeft=4;spacingRight=4;overflow=hidden;rotatable=0;points=[[0,0.5],[1,0.5]];portConstraint=eastwest;" vertex="1" parent="rF4SldOmLLkLFuO0pQVK-97">
          <mxGeometry y="26" width="160" height="26" as="geometry" />
        </mxCell>
        <mxCell id="rF4SldOmLLkLFuO0pQVK-99" value="-Ime_firrma:Zara" style="text;align=left;verticalAlign=top;spacingLeft=4;spacingRight=4;overflow=hidden;rotatable=0;points=[[0,0.5],[1,0.5]];portConstraint=eastwest;rounded=0;shadow=0;html=0;" vertex="1" parent="rF4SldOmLLkLFuO0pQVK-97">
          <mxGeometry y="52" width="160" height="26" as="geometry" />
        </mxCell>
        <mxCell id="rF4SldOmLLkLFuO0pQVK-100" value="- Email: zara@gmail.com&#xa;&#xa;- Tel_broj: 12345&#xa;&#xa;-Adresa: east gate mall&#xa;&#xa;" style="text;align=left;verticalAlign=top;spacingLeft=4;spacingRight=4;overflow=hidden;rotatable=0;points=[[0,0.5],[1,0.5]];portConstraint=eastwest;rounded=0;shadow=0;html=0;" vertex="1" parent="rF4SldOmLLkLFuO0pQVK-97">
          <mxGeometry y="78" width="160" height="82" as="geometry" />
        </mxCell>
        <mxCell id="rF4SldOmLLkLFuO0pQVK-103" value="NarachkaNaRoba" style="swimlane;fontStyle=2;align=center;verticalAlign=top;childLayout=stackLayout;horizontal=1;startSize=26;horizontalStack=0;resizeParent=1;resizeLast=0;collapsible=1;marginBottom=0;rounded=0;shadow=0;strokeWidth=1;" vertex="1" parent="WIyWlLk6GJQsqaUBKTNV-1">
          <mxGeometry x="90" y="-1100" width="160" height="270" as="geometry">
            <mxRectangle x="230" y="140" width="160" height="26" as="alternateBounds" />
          </mxGeometry>
        </mxCell>
        <mxCell id="rF4SldOmLLkLFuO0pQVK-104" value="-ID_narachkaNaRoba: int" style="text;align=left;verticalAlign=top;spacingLeft=4;spacingRight=4;overflow=hidden;rotatable=0;points=[[0,0.5],[1,0.5]];portConstraint=eastwest;" vertex="1" parent="rF4SldOmLLkLFuO0pQVK-103">
          <mxGeometry y="26" width="160" height="26" as="geometry" />
        </mxCell>
        <mxCell id="rF4SldOmLLkLFuO0pQVK-105" value="-ID_Dobavucac: int" style="text;align=left;verticalAlign=top;spacingLeft=4;spacingRight=4;overflow=hidden;rotatable=0;points=[[0,0.5],[1,0.5]];portConstraint=eastwest;rounded=0;shadow=0;html=0;" vertex="1" parent="rF4SldOmLLkLFuO0pQVK-103">
          <mxGeometry y="52" width="160" height="26" as="geometry" />
        </mxCell>
        <mxCell id="rF4SldOmLLkLFuO0pQVK-106" value="- Suma: int&#xa;&#xa;- Kolicina: int&#xa;&#xa;- Datum: Date&#xa;" style="text;align=left;verticalAlign=top;spacingLeft=4;spacingRight=4;overflow=hidden;rotatable=0;points=[[0,0.5],[1,0.5]];portConstraint=eastwest;rounded=0;shadow=0;html=0;" vertex="1" parent="rF4SldOmLLkLFuO0pQVK-103">
          <mxGeometry y="78" width="160" height="82" as="geometry" />
        </mxCell>
        <mxCell id="rF4SldOmLLkLFuO0pQVK-107" value="" style="line;html=1;strokeWidth=1;align=left;verticalAlign=middle;spacingTop=-1;spacingLeft=3;spacingRight=3;rotatable=0;labelPosition=right;points=[];portConstraint=eastwest;" vertex="1" parent="rF4SldOmLLkLFuO0pQVK-103">
          <mxGeometry y="160" width="160" height="8" as="geometry" />
        </mxCell>
        <mxCell id="rF4SldOmLLkLFuO0pQVK-108" value="&lt;div&gt;+ getters()&lt;/div&gt;&lt;div&gt;+setters()&lt;/div&gt;&lt;div&gt;&lt;br&gt;&lt;/div&gt;" style="text;html=1;strokeColor=none;fillColor=none;align=center;verticalAlign=middle;whiteSpace=wrap;rounded=0;" vertex="1" parent="rF4SldOmLLkLFuO0pQVK-103">
          <mxGeometry y="168" width="160" height="102" as="geometry" />
        </mxCell>
        <mxCell id="rF4SldOmLLkLFuO0pQVK-109" style="edgeStyle=orthogonalEdgeStyle;rounded=0;orthogonalLoop=1;jettySize=auto;html=1;exitX=0;exitY=0.5;exitDx=0;exitDy=0;strokeWidth=1;endArrow=diamondThin;endFill=1;endSize=8;" edge="1" parent="WIyWlLk6GJQsqaUBKTNV-1" source="rF4SldOmLLkLFuO0pQVK-100" target="rF4SldOmLLkLFuO0pQVK-106">
          <mxGeometry relative="1" as="geometry" />
        </mxCell>
        <mxCell id="rF4SldOmLLkLFuO0pQVK-111" value="Upravitel" style="swimlane;fontStyle=2;align=center;verticalAlign=top;childLayout=stackLayout;horizontal=1;startSize=26;horizontalStack=0;resizeParent=1;resizeLast=0;collapsible=1;marginBottom=0;rounded=0;shadow=0;strokeWidth=1;" vertex="1" parent="WIyWlLk6GJQsqaUBKTNV-1">
          <mxGeometry x="-140" y="-950" width="160" height="270" as="geometry">
            <mxRectangle x="230" y="140" width="160" height="26" as="alternateBounds" />
          </mxGeometry>
        </mxCell>
        <mxCell id="rF4SldOmLLkLFuO0pQVK-112" value="-ID_Upravitel: int" style="text;align=left;verticalAlign=top;spacingLeft=4;spacingRight=4;overflow=hidden;rotatable=0;points=[[0,0.5],[1,0.5]];portConstraint=eastwest;" vertex="1" parent="rF4SldOmLLkLFuO0pQVK-111">
          <mxGeometry y="26" width="160" height="26" as="geometry" />
        </mxCell>
        <mxCell id="rF4SldOmLLkLFuO0pQVK-113" value="-ID_vraboten:int" style="text;align=left;verticalAlign=top;spacingLeft=4;spacingRight=4;overflow=hidden;rotatable=0;points=[[0,0.5],[1,0.5]];portConstraint=eastwest;rounded=0;shadow=0;html=0;" vertex="1" parent="rF4SldOmLLkLFuO0pQVK-111">
          <mxGeometry y="52" width="160" height="26" as="geometry" />
        </mxCell>
        <mxCell id="rF4SldOmLLkLFuO0pQVK-115" value="" style="line;html=1;strokeWidth=1;align=left;verticalAlign=middle;spacingTop=-1;spacingLeft=3;spacingRight=3;rotatable=0;labelPosition=right;points=[];portConstraint=eastwest;" vertex="1" parent="rF4SldOmLLkLFuO0pQVK-111">
          <mxGeometry y="78" width="160" height="8" as="geometry" />
        </mxCell>
        <mxCell id="rF4SldOmLLkLFuO0pQVK-116" value="&lt;div&gt;&lt;br&gt;&lt;/div&gt;&lt;div&gt;+getters()&lt;/div&gt;&lt;div&gt;+setters()&lt;/div&gt;&lt;div&gt;+proveriSostojba()&lt;/div&gt;&lt;div&gt;+prikaziPreporaki()&lt;/div&gt;&lt;div&gt;&lt;br&gt;&lt;/div&gt;" style="text;html=1;strokeColor=none;fillColor=none;align=center;verticalAlign=middle;whiteSpace=wrap;rounded=0;" vertex="1" parent="rF4SldOmLLkLFuO0pQVK-111">
          <mxGeometry y="86" width="160" height="102" as="geometry" />
        </mxCell>
        <mxCell id="rF4SldOmLLkLFuO0pQVK-127" style="edgeStyle=orthogonalEdgeStyle;rounded=0;orthogonalLoop=1;jettySize=auto;html=1;entryX=0.006;entryY=0.007;entryDx=0;entryDy=0;entryPerimeter=0;strokeWidth=1;endArrow=diamondThin;endFill=1;endSize=8;" edge="1" parent="WIyWlLk6GJQsqaUBKTNV-1" source="rF4SldOmLLkLFuO0pQVK-117" target="rF4SldOmLLkLFuO0pQVK-6">
          <mxGeometry relative="1" as="geometry" />
        </mxCell>
        <mxCell id="rF4SldOmLLkLFuO0pQVK-117" value="Preporaka" style="swimlane;fontStyle=2;align=center;verticalAlign=top;childLayout=stackLayout;horizontal=1;startSize=26;horizontalStack=0;resizeParent=1;resizeLast=0;collapsible=1;marginBottom=0;rounded=0;shadow=0;strokeWidth=1;" vertex="1" parent="WIyWlLk6GJQsqaUBKTNV-1">
          <mxGeometry x="80" y="-780" width="160" height="270" as="geometry">
            <mxRectangle x="230" y="140" width="160" height="26" as="alternateBounds" />
          </mxGeometry>
        </mxCell>
        <mxCell id="rF4SldOmLLkLFuO0pQVK-118" value="-ID_Preporaka:int" style="text;align=left;verticalAlign=top;spacingLeft=4;spacingRight=4;overflow=hidden;rotatable=0;points=[[0,0.5],[1,0.5]];portConstraint=eastwest;" vertex="1" parent="rF4SldOmLLkLFuO0pQVK-117">
          <mxGeometry y="26" width="160" height="26" as="geometry" />
        </mxCell>
        <mxCell id="rF4SldOmLLkLFuO0pQVK-119" value="-ID_Proizvod: int" style="text;align=left;verticalAlign=top;spacingLeft=4;spacingRight=4;overflow=hidden;rotatable=0;points=[[0,0.5],[1,0.5]];portConstraint=eastwest;rounded=0;shadow=0;html=0;" vertex="1" parent="rF4SldOmLLkLFuO0pQVK-117">
          <mxGeometry y="52" width="160" height="26" as="geometry" />
        </mxCell>
        <mxCell id="rF4SldOmLLkLFuO0pQVK-120" value="- ID_klient: int&#xa;" style="text;align=left;verticalAlign=top;spacingLeft=4;spacingRight=4;overflow=hidden;rotatable=0;points=[[0,0.5],[1,0.5]];portConstraint=eastwest;rounded=0;shadow=0;html=0;" vertex="1" parent="rF4SldOmLLkLFuO0pQVK-117">
          <mxGeometry y="78" width="160" height="42" as="geometry" />
        </mxCell>
        <mxCell id="rF4SldOmLLkLFuO0pQVK-121" value="" style="line;html=1;strokeWidth=1;align=left;verticalAlign=middle;spacingTop=-1;spacingLeft=3;spacingRight=3;rotatable=0;labelPosition=right;points=[];portConstraint=eastwest;" vertex="1" parent="rF4SldOmLLkLFuO0pQVK-117">
          <mxGeometry y="120" width="160" height="8" as="geometry" />
        </mxCell>
        <mxCell id="rF4SldOmLLkLFuO0pQVK-122" value="&lt;div&gt;+ getters()&lt;/div&gt;&lt;div&gt;+setters()&lt;/div&gt;&lt;div&gt;+najporachuvanProizvod()&lt;/div&gt;&lt;div&gt;+najmnoguRating()&lt;/div&gt;&lt;div&gt;+najPreporachan()&lt;br&gt;&lt;/div&gt;&lt;div&gt;&lt;br&gt;&lt;/div&gt;" style="text;html=1;strokeColor=none;fillColor=none;align=center;verticalAlign=middle;whiteSpace=wrap;rounded=0;" vertex="1" parent="rF4SldOmLLkLFuO0pQVK-117">
          <mxGeometry y="128" width="160" height="102" as="geometry" />
        </mxCell>
        <mxCell id="rF4SldOmLLkLFuO0pQVK-125" style="edgeStyle=orthogonalEdgeStyle;rounded=0;orthogonalLoop=1;jettySize=auto;html=1;entryX=0.25;entryY=0;entryDx=0;entryDy=0;strokeWidth=1;endArrow=diamondThin;endFill=1;endSize=8;" edge="1" parent="WIyWlLk6GJQsqaUBKTNV-1" target="rF4SldOmLLkLFuO0pQVK-3">
          <mxGeometry relative="1" as="geometry">
            <mxPoint x="-60" y="-680" as="sourcePoint" />
            <Array as="points">
              <mxPoint x="-60" y="-490" />
              <mxPoint x="330" y="-490" />
            </Array>
          </mxGeometry>
        </mxCell>
        <mxCell id="rF4SldOmLLkLFuO0pQVK-130" value="preporachaj" style="text;html=1;strokeColor=none;fillColor=none;align=center;verticalAlign=middle;whiteSpace=wrap;rounded=0;" vertex="1" parent="WIyWlLk6GJQsqaUBKTNV-1">
          <mxGeometry x="180" y="-410" width="60" height="30" as="geometry" />
        </mxCell>
        <mxCell id="rF4SldOmLLkLFuO0pQVK-136" value="nabavuva" style="text;html=1;strokeColor=none;fillColor=none;align=center;verticalAlign=middle;whiteSpace=wrap;rounded=0;" vertex="1" parent="WIyWlLk6GJQsqaUBKTNV-1">
          <mxGeometry x="400" y="-560" width="60" height="30" as="geometry" />
        </mxCell>
        <mxCell id="rF4SldOmLLkLFuO0pQVK-137" value="1" style="text;html=1;strokeColor=none;fillColor=none;align=center;verticalAlign=middle;whiteSpace=wrap;rounded=0;" vertex="1" parent="WIyWlLk6GJQsqaUBKTNV-1">
          <mxGeometry x="260" y="-770" width="60" height="30" as="geometry" />
        </mxCell>
        <mxCell id="rF4SldOmLLkLFuO0pQVK-138" value="1...*" style="text;html=1;strokeColor=none;fillColor=none;align=center;verticalAlign=middle;whiteSpace=wrap;rounded=0;" vertex="1" parent="WIyWlLk6GJQsqaUBKTNV-1">
          <mxGeometry x="240" y="-1020" width="60" height="30" as="geometry" />
        </mxCell>
        <mxCell id="rF4SldOmLLkLFuO0pQVK-139" value="narachajRoba" style="text;html=1;strokeColor=none;fillColor=none;align=center;verticalAlign=middle;whiteSpace=wrap;rounded=0;" vertex="1" parent="WIyWlLk6GJQsqaUBKTNV-1">
          <mxGeometry x="290" y="-970" width="60" height="30" as="geometry" />
        </mxCell>
        <mxCell id="rF4SldOmLLkLFuO0pQVK-140" value="Admin" style="swimlane;fontStyle=2;align=center;verticalAlign=top;childLayout=stackLayout;horizontal=1;startSize=26;horizontalStack=0;resizeParent=1;resizeLast=0;collapsible=1;marginBottom=0;rounded=0;shadow=0;strokeWidth=1;" vertex="1" parent="WIyWlLk6GJQsqaUBKTNV-1">
          <mxGeometry x="-460" y="-296" width="160" height="270" as="geometry">
            <mxRectangle x="230" y="140" width="160" height="26" as="alternateBounds" />
          </mxGeometry>
        </mxCell>
        <mxCell id="rF4SldOmLLkLFuO0pQVK-141" value="-ID_admin:int" style="text;align=left;verticalAlign=top;spacingLeft=4;spacingRight=4;overflow=hidden;rotatable=0;points=[[0,0.5],[1,0.5]];portConstraint=eastwest;" vertex="1" parent="rF4SldOmLLkLFuO0pQVK-140">
          <mxGeometry y="26" width="160" height="26" as="geometry" />
        </mxCell>
        <mxCell id="rF4SldOmLLkLFuO0pQVK-142" value="-ID_vraboten:int" style="text;align=left;verticalAlign=top;spacingLeft=4;spacingRight=4;overflow=hidden;rotatable=0;points=[[0,0.5],[1,0.5]];portConstraint=eastwest;rounded=0;shadow=0;html=0;" vertex="1" parent="rF4SldOmLLkLFuO0pQVK-140">
          <mxGeometry y="52" width="160" height="26" as="geometry" />
        </mxCell>
        <mxCell id="rF4SldOmLLkLFuO0pQVK-143" value="-Username:string&#xa;&#xa;-Password: string&#xa;" style="text;align=left;verticalAlign=top;spacingLeft=4;spacingRight=4;overflow=hidden;rotatable=0;points=[[0,0.5],[1,0.5]];portConstraint=eastwest;rounded=0;shadow=0;html=0;" vertex="1" parent="rF4SldOmLLkLFuO0pQVK-140">
          <mxGeometry y="78" width="160" height="82" as="geometry" />
        </mxCell>
        <mxCell id="rF4SldOmLLkLFuO0pQVK-144" value="" style="line;html=1;strokeWidth=1;align=left;verticalAlign=middle;spacingTop=-1;spacingLeft=3;spacingRight=3;rotatable=0;labelPosition=right;points=[];portConstraint=eastwest;" vertex="1" parent="rF4SldOmLLkLFuO0pQVK-140">
          <mxGeometry y="160" width="160" height="8" as="geometry" />
        </mxCell>
        <mxCell id="rF4SldOmLLkLFuO0pQVK-145" value="&lt;div&gt;&lt;br&gt;&lt;/div&gt;&lt;div&gt;+getters()&lt;/div&gt;&lt;div&gt;+setters()&lt;/div&gt;&lt;div&gt;+proveriPodatoci()&lt;/div&gt;&lt;div&gt;&lt;br&gt;&lt;/div&gt;" style="text;html=1;strokeColor=none;fillColor=none;align=center;verticalAlign=middle;whiteSpace=wrap;rounded=0;" vertex="1" parent="rF4SldOmLLkLFuO0pQVK-140">
          <mxGeometry y="168" width="160" height="102" as="geometry" />
        </mxCell>
        <mxCell id="rF4SldOmLLkLFuO0pQVK-146" value="Registracija" style="swimlane;fontStyle=2;align=center;verticalAlign=top;childLayout=stackLayout;horizontal=1;startSize=26;horizontalStack=0;resizeParent=1;resizeLast=0;collapsible=1;marginBottom=0;rounded=0;shadow=0;strokeWidth=1;" vertex="1" parent="WIyWlLk6GJQsqaUBKTNV-1">
          <mxGeometry x="-200" y="-200" width="160" height="330" as="geometry">
            <mxRectangle x="230" y="140" width="160" height="26" as="alternateBounds" />
          </mxGeometry>
        </mxCell>
        <mxCell id="rF4SldOmLLkLFuO0pQVK-147" value="-ID_registracija: int" style="text;align=left;verticalAlign=top;spacingLeft=4;spacingRight=4;overflow=hidden;rotatable=0;points=[[0,0.5],[1,0.5]];portConstraint=eastwest;" vertex="1" parent="rF4SldOmLLkLFuO0pQVK-146">
          <mxGeometry y="26" width="160" height="26" as="geometry" />
        </mxCell>
        <mxCell id="rF4SldOmLLkLFuO0pQVK-148" value="-Ime_klient:string" style="text;align=left;verticalAlign=top;spacingLeft=4;spacingRight=4;overflow=hidden;rotatable=0;points=[[0,0.5],[1,0.5]];portConstraint=eastwest;rounded=0;shadow=0;html=0;" vertex="1" parent="rF4SldOmLLkLFuO0pQVK-146">
          <mxGeometry y="52" width="160" height="26" as="geometry" />
        </mxCell>
        <mxCell id="rF4SldOmLLkLFuO0pQVK-149" value="- Prezime_klient:string&#xa;&#xa;- Email: string&#xa;&#xa;- Tel_broj: int&#xa;&#xa;- Adresa: string&#xa;&#xa;- username: string&#xa;" style="text;align=left;verticalAlign=top;spacingLeft=4;spacingRight=4;overflow=hidden;rotatable=0;points=[[0,0.5],[1,0.5]];portConstraint=eastwest;rounded=0;shadow=0;html=0;" vertex="1" parent="rF4SldOmLLkLFuO0pQVK-146">
          <mxGeometry y="78" width="160" height="142" as="geometry" />
        </mxCell>
        <mxCell id="rF4SldOmLLkLFuO0pQVK-150" value="" style="line;html=1;strokeWidth=1;align=left;verticalAlign=middle;spacingTop=-1;spacingLeft=3;spacingRight=3;rotatable=0;labelPosition=right;points=[];portConstraint=eastwest;" vertex="1" parent="rF4SldOmLLkLFuO0pQVK-146">
          <mxGeometry y="220" width="160" height="8" as="geometry" />
        </mxCell>
        <mxCell id="rF4SldOmLLkLFuO0pQVK-151" value="&lt;div&gt;&lt;br&gt;&lt;/div&gt;&lt;div&gt;+getters()&lt;/div&gt;&lt;div&gt;+setters()&lt;/div&gt;&lt;div&gt;+popolniFormular()&lt;br&gt;&lt;/div&gt;&lt;div&gt;&lt;br&gt;&lt;/div&gt;" style="text;html=1;strokeColor=none;fillColor=none;align=center;verticalAlign=middle;whiteSpace=wrap;rounded=0;" vertex="1" parent="rF4SldOmLLkLFuO0pQVK-146">
          <mxGeometry y="228" width="160" height="102" as="geometry" />
        </mxCell>
        <mxCell id="rF4SldOmLLkLFuO0pQVK-153" value="Kontakt" style="swimlane;fontStyle=2;align=center;verticalAlign=top;childLayout=stackLayout;horizontal=1;startSize=26;horizontalStack=0;resizeParent=1;resizeLast=0;collapsible=1;marginBottom=0;rounded=0;shadow=0;strokeWidth=1;" vertex="1" parent="WIyWlLk6GJQsqaUBKTNV-1">
          <mxGeometry x="-270" y="-540" width="160" height="244" as="geometry">
            <mxRectangle x="230" y="140" width="160" height="26" as="alternateBounds" />
          </mxGeometry>
        </mxCell>
        <mxCell id="rF4SldOmLLkLFuO0pQVK-155" value="-ID_vraboten:int" style="text;align=left;verticalAlign=top;spacingLeft=4;spacingRight=4;overflow=hidden;rotatable=0;points=[[0,0.5],[1,0.5]];portConstraint=eastwest;rounded=0;shadow=0;html=0;" vertex="1" parent="rF4SldOmLLkLFuO0pQVK-153">
          <mxGeometry y="26" width="160" height="26" as="geometry" />
        </mxCell>
        <mxCell id="rF4SldOmLLkLFuO0pQVK-156" value="- Tel_broj: int&#xa;&#xa;- Emial: string&#xa;&#xa;- Datum: Date&#xa;" style="text;align=left;verticalAlign=top;spacingLeft=4;spacingRight=4;overflow=hidden;rotatable=0;points=[[0,0.5],[1,0.5]];portConstraint=eastwest;rounded=0;shadow=0;html=0;" vertex="1" parent="rF4SldOmLLkLFuO0pQVK-153">
          <mxGeometry y="52" width="160" height="82" as="geometry" />
        </mxCell>
        <mxCell id="rF4SldOmLLkLFuO0pQVK-157" value="" style="line;html=1;strokeWidth=1;align=left;verticalAlign=middle;spacingTop=-1;spacingLeft=3;spacingRight=3;rotatable=0;labelPosition=right;points=[];portConstraint=eastwest;" vertex="1" parent="rF4SldOmLLkLFuO0pQVK-153">
          <mxGeometry y="134" width="160" height="8" as="geometry" />
        </mxCell>
        <mxCell id="rF4SldOmLLkLFuO0pQVK-158" value="&lt;div&gt;&lt;br&gt;&lt;/div&gt;&lt;div&gt;+getters()&lt;/div&gt;&lt;div&gt;+setters()&lt;/div&gt;&lt;div&gt;+kontaktiraj()&lt;/div&gt;&lt;div&gt;&lt;br&gt;&lt;/div&gt;" style="text;html=1;strokeColor=none;fillColor=none;align=center;verticalAlign=middle;whiteSpace=wrap;rounded=0;" vertex="1" parent="rF4SldOmLLkLFuO0pQVK-153">
          <mxGeometry y="142" width="160" height="102" as="geometry" />
        </mxCell>
        <mxCell id="rF4SldOmLLkLFuO0pQVK-165" style="edgeStyle=orthogonalEdgeStyle;rounded=0;orthogonalLoop=1;jettySize=auto;html=1;entryX=0.555;entryY=-0.009;entryDx=0;entryDy=0;entryPerimeter=0;strokeWidth=1;endArrow=diamondThin;endFill=1;endSize=8;" edge="1" parent="WIyWlLk6GJQsqaUBKTNV-1" source="rF4SldOmLLkLFuO0pQVK-159" target="rF4SldOmLLkLFuO0pQVK-153">
          <mxGeometry relative="1" as="geometry" />
        </mxCell>
        <mxCell id="rF4SldOmLLkLFuO0pQVK-187" style="edgeStyle=orthogonalEdgeStyle;rounded=0;orthogonalLoop=1;jettySize=auto;html=1;exitX=0.5;exitY=0;exitDx=0;exitDy=0;entryX=0.032;entryY=-0.11;entryDx=0;entryDy=0;entryPerimeter=0;strokeWidth=1;endArrow=block;endFill=0;endSize=8;" edge="1" parent="WIyWlLk6GJQsqaUBKTNV-1" source="rF4SldOmLLkLFuO0pQVK-159" target="rF4SldOmLLkLFuO0pQVK-113">
          <mxGeometry relative="1" as="geometry" />
        </mxCell>
        <mxCell id="rF4SldOmLLkLFuO0pQVK-159" value="Vraboten" style="swimlane;fontStyle=2;align=center;verticalAlign=top;childLayout=stackLayout;horizontal=1;startSize=26;horizontalStack=0;resizeParent=1;resizeLast=0;collapsible=1;marginBottom=0;rounded=0;shadow=0;strokeWidth=1;" vertex="1" parent="WIyWlLk6GJQsqaUBKTNV-1">
          <mxGeometry x="-380" y="-860" width="150" height="220" as="geometry">
            <mxRectangle x="230" y="140" width="160" height="26" as="alternateBounds" />
          </mxGeometry>
        </mxCell>
        <mxCell id="rF4SldOmLLkLFuO0pQVK-161" value="-ID_vraboten:int" style="text;align=left;verticalAlign=top;spacingLeft=4;spacingRight=4;overflow=hidden;rotatable=0;points=[[0,0.5],[1,0.5]];portConstraint=eastwest;rounded=0;shadow=0;html=0;" vertex="1" parent="rF4SldOmLLkLFuO0pQVK-159">
          <mxGeometry y="26" width="150" height="26" as="geometry" />
        </mxCell>
        <mxCell id="rF4SldOmLLkLFuO0pQVK-162" value="- Ime_Vraboten: string&#xa;&#xa;- Prezime_Vraboten:string&#xa;&#xa;- Tel_broj: int&#xa;" style="text;align=left;verticalAlign=top;spacingLeft=4;spacingRight=4;overflow=hidden;rotatable=0;points=[[0,0.5],[1,0.5]];portConstraint=eastwest;rounded=0;shadow=0;html=0;" vertex="1" parent="rF4SldOmLLkLFuO0pQVK-159">
          <mxGeometry y="52" width="150" height="82" as="geometry" />
        </mxCell>
        <mxCell id="rF4SldOmLLkLFuO0pQVK-163" value="" style="line;html=1;strokeWidth=1;align=left;verticalAlign=middle;spacingTop=-1;spacingLeft=3;spacingRight=3;rotatable=0;labelPosition=right;points=[];portConstraint=eastwest;" vertex="1" parent="rF4SldOmLLkLFuO0pQVK-159">
          <mxGeometry y="134" width="150" height="8" as="geometry" />
        </mxCell>
        <mxCell id="rF4SldOmLLkLFuO0pQVK-164" value="&lt;div&gt;&lt;br&gt;&lt;/div&gt;&lt;div&gt;+getters()&lt;/div&gt;&lt;div&gt;+setters()&lt;/div&gt;&lt;div&gt;&lt;br&gt;&lt;/div&gt;&lt;div&gt;&lt;br&gt;&lt;/div&gt;" style="text;html=1;strokeColor=none;fillColor=none;align=center;verticalAlign=middle;whiteSpace=wrap;rounded=0;" vertex="1" parent="rF4SldOmLLkLFuO0pQVK-159">
          <mxGeometry y="142" width="150" height="78" as="geometry" />
        </mxCell>
        <mxCell id="rF4SldOmLLkLFuO0pQVK-166" style="edgeStyle=orthogonalEdgeStyle;rounded=0;orthogonalLoop=1;jettySize=auto;html=1;entryX=1;entryY=0.5;entryDx=0;entryDy=0;strokeWidth=1;endArrow=diamondThin;endFill=1;endSize=8;" edge="1" parent="WIyWlLk6GJQsqaUBKTNV-1" source="zkfFHV4jXpPFQw0GAbJ--3" target="rF4SldOmLLkLFuO0pQVK-156">
          <mxGeometry relative="1" as="geometry" />
        </mxCell>
        <mxCell id="rF4SldOmLLkLFuO0pQVK-167" style="edgeStyle=orthogonalEdgeStyle;rounded=0;orthogonalLoop=1;jettySize=auto;html=1;entryX=1;entryY=0.323;entryDx=0;entryDy=0;entryPerimeter=0;strokeWidth=1;endArrow=diamondThin;endFill=1;endSize=8;" edge="1" parent="WIyWlLk6GJQsqaUBKTNV-1" source="rF4SldOmLLkLFuO0pQVK-149" target="rF4SldOmLLkLFuO0pQVK-143">
          <mxGeometry relative="1" as="geometry" />
        </mxCell>
        <mxCell id="rF4SldOmLLkLFuO0pQVK-168" style="edgeStyle=orthogonalEdgeStyle;rounded=0;orthogonalLoop=1;jettySize=auto;html=1;entryX=1;entryY=0.5;entryDx=0;entryDy=0;strokeWidth=1;endArrow=diamondThin;endFill=1;endSize=8;" edge="1" parent="WIyWlLk6GJQsqaUBKTNV-1" source="zkfFHV4jXpPFQw0GAbJ--3" target="rF4SldOmLLkLFuO0pQVK-149">
          <mxGeometry relative="1" as="geometry" />
        </mxCell>
        <mxCell id="rF4SldOmLLkLFuO0pQVK-169" value="1...*" style="text;html=1;strokeColor=none;fillColor=none;align=center;verticalAlign=middle;whiteSpace=wrap;rounded=0;" vertex="1" parent="WIyWlLk6GJQsqaUBKTNV-1">
          <mxGeometry x="-250" y="-40" width="60" height="30" as="geometry" />
        </mxCell>
        <mxCell id="rF4SldOmLLkLFuO0pQVK-170" value="1" style="text;html=1;strokeColor=none;fillColor=none;align=center;verticalAlign=middle;whiteSpace=wrap;rounded=0;" vertex="1" parent="WIyWlLk6GJQsqaUBKTNV-1">
          <mxGeometry x="-300" y="-220" width="60" height="30" as="geometry" />
        </mxCell>
        <mxCell id="rF4SldOmLLkLFuO0pQVK-171" value="Validiraj" style="text;html=1;strokeColor=none;fillColor=none;align=center;verticalAlign=middle;whiteSpace=wrap;rounded=0;" vertex="1" parent="WIyWlLk6GJQsqaUBKTNV-1">
          <mxGeometry x="-300" y="-110" width="60" height="30" as="geometry" />
        </mxCell>
        <mxCell id="rF4SldOmLLkLFuO0pQVK-172" value="0...*" style="text;html=1;strokeColor=none;fillColor=none;align=center;verticalAlign=middle;whiteSpace=wrap;rounded=0;" vertex="1" parent="WIyWlLk6GJQsqaUBKTNV-1">
          <mxGeometry x="-40" y="-50" width="60" height="30" as="geometry" />
        </mxCell>
        <mxCell id="rF4SldOmLLkLFuO0pQVK-177" value="kontakt" style="text;html=1;strokeColor=none;fillColor=none;align=center;verticalAlign=middle;whiteSpace=wrap;rounded=0;" vertex="1" parent="WIyWlLk6GJQsqaUBKTNV-1">
          <mxGeometry x="-90" y="-400" width="60" height="30" as="geometry" />
        </mxCell>
        <mxCell id="rF4SldOmLLkLFuO0pQVK-179" value="registriraj" style="text;html=1;strokeColor=none;fillColor=none;align=center;verticalAlign=middle;whiteSpace=wrap;rounded=0;" vertex="1" parent="WIyWlLk6GJQsqaUBKTNV-1">
          <mxGeometry x="-30" y="-160" width="60" height="30" as="geometry" />
        </mxCell>
        <mxCell id="rF4SldOmLLkLFuO0pQVK-181" value="1" style="text;html=1;strokeColor=none;fillColor=none;align=center;verticalAlign=middle;whiteSpace=wrap;rounded=0;" vertex="1" parent="WIyWlLk6GJQsqaUBKTNV-1">
          <mxGeometry x="-360" y="-640" width="60" height="30" as="geometry" />
        </mxCell>
        <mxCell id="rF4SldOmLLkLFuO0pQVK-182" value="1" style="text;html=1;strokeColor=none;fillColor=none;align=center;verticalAlign=middle;whiteSpace=wrap;rounded=0;" vertex="1" parent="WIyWlLk6GJQsqaUBKTNV-1">
          <mxGeometry x="-240" y="-570" width="60" height="30" as="geometry" />
        </mxCell>
        <mxCell id="rF4SldOmLLkLFuO0pQVK-183" value="povikaj" style="text;html=1;strokeColor=none;fillColor=none;align=center;verticalAlign=middle;whiteSpace=wrap;rounded=0;" vertex="1" parent="WIyWlLk6GJQsqaUBKTNV-1">
          <mxGeometry x="-280" y="-610" width="60" height="30" as="geometry" />
        </mxCell>
        <mxCell id="rF4SldOmLLkLFuO0pQVK-184" style="edgeStyle=orthogonalEdgeStyle;rounded=0;orthogonalLoop=1;jettySize=auto;html=1;entryX=0.317;entryY=0.003;entryDx=0;entryDy=0;entryPerimeter=0;strokeWidth=1;endArrow=block;endFill=0;endSize=8;" edge="1" parent="WIyWlLk6GJQsqaUBKTNV-1" source="rF4SldOmLLkLFuO0pQVK-162" target="rF4SldOmLLkLFuO0pQVK-140">
          <mxGeometry relative="1" as="geometry" />
        </mxCell>
        <mxCell id="rF4SldOmLLkLFuO0pQVK-185" value="roditel" style="text;html=1;strokeColor=none;fillColor=none;align=center;verticalAlign=middle;whiteSpace=wrap;rounded=0;" vertex="1" parent="WIyWlLk6GJQsqaUBKTNV-1">
          <mxGeometry x="-440" y="-800" width="60" height="30" as="geometry" />
        </mxCell>
        <mxCell id="rF4SldOmLLkLFuO0pQVK-190" style="edgeStyle=orthogonalEdgeStyle;rounded=0;orthogonalLoop=1;jettySize=auto;html=1;strokeWidth=1;endArrow=classic;endFill=1;endSize=8;" edge="1" parent="WIyWlLk6GJQsqaUBKTNV-1" source="rF4SldOmLLkLFuO0pQVK-16" target="rF4SldOmLLkLFuO0pQVK-36">
          <mxGeometry relative="1" as="geometry" />
        </mxCell>
      </root>
    </mxGraphModel>
  </diagram>
</mxfile>
